<?xml version="1.0" encoding="utf-8"?>
<!-- Generator: Adobe Illustrator 21.0.0, SVG Export Plug-In . SVG Version: 6.00 Build 0)  -->
<svg version="1.1" id="Capa_1" xmlns="http://www.w3.org/2000/svg" xmlns:xlink="http://www.w3.org/1999/xlink" x="0px" y="0px"
	 viewBox="0 0 69.3 69.3" style="enable-background:new 0 0 69.3 69.3;" xml:space="preserve">
<style type="text/css">
	.st0{fill:#9B2221;}
	.st1{fill:#BE2632;}
	.st2{fill:#FFFFFF;}
	.st3{fill:#141414;}
</style>
<g>
	<path class="st0" d="M33.5,41.6c-8.3-0.3-14.2-6.9-14.2-14.8c0-8,5.9-14.5,14.2-14.8V0.5H18.4L4,37.1l29.4,31.7L33.5,41.6
		L33.5,41.6z"/>
	<path class="st1" d="M52.2,0.6L52.2,0.6L35.5,0.5V12c8.3,0.7,13.4,7.1,13.4,14.8s-5.1,14.1-13.4,14.8v27l29.8-32.1l0,0L52.2,0.6z"
		/>
	<path class="st2" d="M47.1,26.8c0-7-5.6-12.6-12.6-12.6s-12.6,5.6-12.6,12.6s5.6,12.6,12.6,12.6S47.1,33.7,47.1,26.8"/>
	<path class="st3" d="M43.8,26.8c0-5.1-4.1-9.3-9.3-9.3c-5.1,0-9.3,4.1-9.3,9.3c0,5.1,4.1,9.3,9.3,9.3C39.7,36,43.8,31.9,43.8,26.8"
		/>
</g>
</svg>
